<svg width="50" height="50" viewBox="0 0 50 50" fill="none" xmlns="http://www.w3.org/2000/svg">
<g clip-path="url(#clip0_4_594)">
<path d="M25 50C38.8071 50 50 38.8071 50 25C50 11.1929 38.8071 0 25 0C11.1929 0 0 11.1929 0 25C0 38.8071 11.1929 50 25 50Z" fill="url(#paint0_linear_4_594)"/>
<path d="M25.0003 39.2691C20.4568 39.2691 16.0655 37.5191 12.6524 34.3343C11.772 33.5191 11.7285 32.1387 12.5437 31.2583C13.359 30.3778 14.7394 30.3235 15.6198 31.1496C18.2285 33.5735 21.5655 34.9104 25.0111 34.9104C28.4568 34.9104 31.7829 33.5735 34.4024 31.1496C35.2829 30.3343 36.6633 30.3887 37.4785 31.2583C38.2937 32.1387 38.2503 33.5083 37.3698 34.3343C33.9459 37.5083 29.5655 39.2691 25.022 39.2691H25.0003Z" fill="url(#paint1_linear_4_594)"/>
<path d="M38.0443 21.8842C37.4356 21.8842 36.8269 21.6233 36.3921 21.1233C35.8377 20.4711 34.9138 19.7103 33.6964 19.7103C32.479 19.7103 31.5551 20.482 31.0008 21.1233C30.2182 22.0363 28.8486 22.1342 27.9356 21.3516C27.0225 20.569 26.9247 19.1994 27.7073 18.2863C29.3377 16.395 31.4573 15.3516 33.7073 15.3516C35.9573 15.3516 38.0769 16.395 39.7073 18.2863C40.4899 19.1994 40.3921 20.569 39.479 21.3516C39.066 21.7103 38.566 21.8733 38.066 21.8733L38.0443 21.8842Z" fill="url(#paint2_linear_4_594)"/>
<path d="M20.6536 21.8842C20.0449 21.8842 19.4362 21.6233 19.0015 21.1233C18.4471 20.4711 17.5232 19.7103 16.3058 19.7103C15.0884 19.7103 14.1645 20.482 13.6102 21.1233C12.8275 22.0363 11.458 22.1342 10.5449 21.3516C9.63189 20.569 9.53406 19.1994 10.3167 18.2863C11.9471 16.395 14.0667 15.3516 16.3167 15.3516C18.5667 15.3516 20.6862 16.395 22.3167 18.2863C23.0993 19.1994 23.0015 20.569 22.0884 21.3516C21.6754 21.7103 21.1754 21.8733 20.6754 21.8733L20.6536 21.8842Z" fill="url(#paint3_linear_4_594)"/>
</g>
<defs>
<linearGradient id="paint0_linear_4_594" x1="25" y1="50" x2="25" y2="0" gradientUnits="userSpaceOnUse">
<stop stop-color="#BCD5FC"/>
<stop offset="1" stop-color="#F0F5FF"/>
</linearGradient>
<linearGradient id="paint1_linear_4_594" x1="25.0003" y1="39.2691" x2="25.0003" y2="30.5735" gradientUnits="userSpaceOnUse">
<stop stop-color="#7AA4EF"/>
<stop offset="1" stop-color="#9DBEF3"/>
</linearGradient>
<linearGradient id="paint2_linear_4_594" x1="33.6964" y1="21.8842" x2="33.6964" y2="15.3624" gradientUnits="userSpaceOnUse">
<stop stop-color="#7AA4EF"/>
<stop offset="1" stop-color="#9DBEF3"/>
</linearGradient>
<linearGradient id="paint3_linear_4_594" x1="16.3058" y1="21.8842" x2="16.3058" y2="15.3624" gradientUnits="userSpaceOnUse">
<stop stop-color="#7AA4EF"/>
<stop offset="1" stop-color="#9DBEF3"/>
</linearGradient>
<clipPath id="clip0_4_594">
<rect width="50" height="50" fill="white"/>
</clipPath>
</defs>
</svg>
