<svg width="44" height="44" viewBox="0 0 44 44" fill="none" xmlns="http://www.w3.org/2000/svg">
<g clip-path="url(#clip0_4_293)">
<path d="M41 20.7442C41 16.1563 37.357 12.4391 32.8465 12.3805C31.1448 7.49954 26.5683 4 21.1739 4C14.3339 4 8.78261 9.62605 8.78261 16.5581V17.3953C5.58565 17.3953 3 20.0158 3 23.2558C3 26.4958 5.58565 29.1163 8.78261 29.1163L33.5652 29.0744C37.737 28.6558 41 25.0893 41 20.7442Z" fill="url(#paint0_linear_4_293)"/>
<path d="M30.2195 40.0014C30.1121 40.0014 29.9964 39.9763 29.889 39.9344C29.4677 39.7503 29.2777 39.2563 29.4595 38.8293L31.979 32.927C32.1608 32.5 32.6482 32.3075 33.0695 32.4916C33.4908 32.6758 33.6808 33.1698 33.499 33.5968L30.9795 39.4991C30.8473 39.8172 30.5416 40.0014 30.2195 40.0014Z" fill="#7FB1FF"/>
<path d="M23.6257 37.0461C23.5183 37.0461 23.4027 37.021 23.2953 36.9791C22.874 36.7949 22.684 36.301 22.8657 35.8823L24.1214 32.927C24.3031 32.5 24.7905 32.3075 25.2035 32.4916C25.6249 32.6758 25.8149 33.1698 25.6331 33.5884L24.3775 36.5437C24.2453 36.8619 23.9396 37.0461 23.6175 37.0461H23.6257Z" fill="#7FB1FF"/>
<path d="M15.7742 40.0014C15.6668 40.0014 15.5511 39.9763 15.4437 39.9344C15.0224 39.7503 14.8324 39.2563 15.0142 38.8293L17.5337 32.927C17.7155 32.5 18.1946 32.3075 18.6242 32.4916C19.0455 32.6758 19.2355 33.1698 19.0537 33.5968L16.5342 39.4991C16.402 39.8172 16.0963 40.0014 15.7742 40.0014Z" fill="#7FB1FF"/>
<path d="M9.1726 37.0466C9.0652 37.0466 8.94955 37.0215 8.84216 36.9796C8.42086 36.7955 8.23086 36.3015 8.4126 35.8745L9.67651 32.9192C9.85825 32.4922 10.3374 32.2996 10.7669 32.4838C11.1882 32.668 11.3782 33.162 11.1965 33.589L9.9326 36.5443C9.80042 36.8624 9.49477 37.0466 9.1726 37.0466Z" fill="#7FB1FF"/>
</g>
<defs>
<linearGradient id="paint0_linear_4_293" x1="22" y1="29.1163" x2="22" y2="4" gradientUnits="userSpaceOnUse">
<stop stop-color="#7AAEFF"/>
<stop offset="1" stop-color="#C1D6FF"/>
</linearGradient>
<clipPath id="clip0_4_293">
<rect width="38" height="36" fill="white" transform="translate(3 4)"/>
</clipPath>
</defs>
</svg>
