<svg width="44" height="44" viewBox="0 0 44 44" fill="none" xmlns="http://www.w3.org/2000/svg">
<g clip-path="url(#clip0_4_350)">
<path d="M21.9974 25.9557C24.1835 25.9557 25.9557 24.1835 25.9557 21.9974C25.9557 19.8113 24.1835 18.0391 21.9974 18.0391C19.8113 18.0391 18.0391 19.8113 18.0391 21.9974C18.0391 24.1835 19.8113 25.9557 21.9974 25.9557Z" fill="url(#paint0_linear_4_350)"/>
<path d="M22.7943 3H21.2109V18.0417H22.7943V3Z" fill="url(#paint1_linear_4_350)"/>
<path d="M22.0039 10.647C21.798 10.647 21.6001 10.5678 21.4418 10.4174L16.9609 5.93656L18.0772 4.82031L21.9959 8.73906L25.9147 4.82031L27.0309 5.93656L22.5501 10.4174C22.3918 10.5757 22.1939 10.647 21.988 10.647H22.0039Z" fill="url(#paint2_linear_4_350)"/>
<path d="M22.7943 25.9609H21.2109V41.0026H22.7943V25.9609Z" fill="url(#paint3_linear_4_350)"/>
<path d="M25.9225 39.188L22.0038 35.2693L18.085 39.188L16.9688 38.0718L21.4496 33.5909C21.7583 33.2822 22.2571 33.2822 22.5658 33.5909L27.0467 38.0718L25.9304 39.188H25.9225Z" fill="url(#paint4_linear_4_350)"/>
<path d="M41.0026 21.2109H25.9609V22.7943H41.0026V21.2109Z" fill="url(#paint5_linear_4_350)"/>
<path d="M38.064 27.0389L33.5831 22.558C33.2744 22.2493 33.2744 21.7505 33.5831 21.4418L38.064 16.9609L39.1802 18.0772L35.2615 21.9959L39.1802 25.9147L38.064 27.0309V27.0389Z" fill="url(#paint6_linear_4_350)"/>
<path d="M18.0417 21.2109H3V22.7943H18.0417V21.2109Z" fill="url(#paint7_linear_4_350)"/>
<path d="M5.93656 27.0388L4.82031 25.9225L8.73906 22.0038L4.82031 18.085L5.93656 16.9688L10.4174 21.4496C10.7261 21.7583 10.7261 22.2571 10.4174 22.5658L5.93656 27.0467V27.0388Z" fill="url(#paint8_linear_4_350)"/>
<path d="M9.13521 8.00541L8.01562 9.125L18.6517 19.7611L19.7713 18.6415L9.13521 8.00541Z" fill="url(#paint9_linear_4_350)"/>
<path d="M13.4115 14.2031H7.07812V12.6198H12.6198V7.07812H14.2031V13.4115C14.2031 13.8469 13.8469 14.2031 13.4115 14.2031Z" fill="url(#paint10_linear_4_350)"/>
<path d="M25.354 24.232L24.2344 25.3516L34.8704 35.9876L35.99 34.868L25.354 24.232Z" fill="url(#paint11_linear_4_350)"/>
<path d="M31.3802 36.9219H29.7969V30.5885C29.7969 30.1531 30.1531 29.7969 30.5885 29.7969H36.9219V31.3802H31.3802V36.9219Z" fill="url(#paint12_linear_4_350)"/>
<path d="M34.8704 8.01237L24.2344 18.6484L25.354 19.768L35.99 9.13196L34.8704 8.01237Z" fill="url(#paint13_linear_4_350)"/>
<path d="M36.9219 14.2031H30.5885C30.1531 14.2031 29.7969 13.8469 29.7969 13.4115V7.07812H31.3802V12.6198H36.9219V14.2031Z" fill="url(#paint14_linear_4_350)"/>
<path d="M18.6439 24.2311L8.00781 34.8672L9.1274 35.9868L19.7635 25.3507L18.6439 24.2311Z" fill="url(#paint15_linear_4_350)"/>
<path d="M14.2031 36.9219H12.6198V31.3802H7.07812V29.7969H13.4115C13.8469 29.7969 14.2031 30.1531 14.2031 30.5885V36.9219Z" fill="url(#paint16_linear_4_350)"/>
</g>
<defs>
<linearGradient id="paint0_linear_4_350" x1="21.9974" y1="25.9557" x2="21.9974" y2="18.0391" gradientUnits="userSpaceOnUse">
<stop stop-color="#7AA4EF"/>
<stop offset="1" stop-color="#9DBEF3"/>
</linearGradient>
<linearGradient id="paint1_linear_4_350" x1="22.0026" y1="18.0417" x2="22.0026" y2="3" gradientUnits="userSpaceOnUse">
<stop stop-color="#BCD5FC"/>
<stop offset="1" stop-color="#F0F5FF"/>
</linearGradient>
<linearGradient id="paint2_linear_4_350" x1="3.00385" y1="10.647" x2="3.79552" y2="4.8124" gradientUnits="userSpaceOnUse">
<stop stop-color="#BCD5FC"/>
<stop offset="1" stop-color="#F0F5FF"/>
</linearGradient>
<linearGradient id="paint3_linear_4_350" x1="3.0026" y1="41.0026" x2="3.79427" y2="25.9609" gradientUnits="userSpaceOnUse">
<stop stop-color="#BCD5FC"/>
<stop offset="1" stop-color="#F0F5FF"/>
</linearGradient>
<linearGradient id="paint4_linear_4_350" x1="3.00375" y1="39.188" x2="3.79542" y2="33.3534" gradientUnits="userSpaceOnUse">
<stop stop-color="#BCD5FC"/>
<stop offset="1" stop-color="#F0F5FF"/>
</linearGradient>
<linearGradient id="paint5_linear_4_350" x1="33.4818" y1="22.7943" x2="33.4818" y2="21.2109" gradientUnits="userSpaceOnUse">
<stop stop-color="#BCD5FC"/>
<stop offset="1" stop-color="#F0F5FF"/>
</linearGradient>
<linearGradient id="paint6_linear_4_350" x1="36.2669" y1="27.0389" x2="36.2669" y2="16.9689" gradientUnits="userSpaceOnUse">
<stop stop-color="#BCD5FC"/>
<stop offset="1" stop-color="#F0F5FF"/>
</linearGradient>
<linearGradient id="paint7_linear_4_350" x1="10.5208" y1="22.7943" x2="10.5208" y2="21.2109" gradientUnits="userSpaceOnUse">
<stop stop-color="#BCD5FC"/>
<stop offset="1" stop-color="#F0F5FF"/>
</linearGradient>
<linearGradient id="paint8_linear_4_350" x1="7.73365" y1="27.0388" x2="7.73365" y2="16.9688" gradientUnits="userSpaceOnUse">
<stop stop-color="#BCD5FC"/>
<stop offset="1" stop-color="#F0F5FF"/>
</linearGradient>
<linearGradient id="paint9_linear_4_350" x1="13.8965" y1="19.7604" x2="13.8965" y2="8.0042" gradientUnits="userSpaceOnUse">
<stop stop-color="#BCD5FC"/>
<stop offset="1" stop-color="#F0F5FF"/>
</linearGradient>
<linearGradient id="paint10_linear_4_350" x1="10.6406" y1="14.2031" x2="10.6406" y2="7.07812" gradientUnits="userSpaceOnUse">
<stop stop-color="#BCD5FC"/>
<stop offset="1" stop-color="#F0F5FF"/>
</linearGradient>
<linearGradient id="paint11_linear_4_350" x1="30.1104" y1="35.9901" x2="30.1104" y2="24.2339" gradientUnits="userSpaceOnUse">
<stop stop-color="#BCD5FC"/>
<stop offset="1" stop-color="#F0F5FF"/>
</linearGradient>
<linearGradient id="paint12_linear_4_350" x1="33.3594" y1="36.9219" x2="33.3594" y2="29.7969" gradientUnits="userSpaceOnUse">
<stop stop-color="#BCD5FC"/>
<stop offset="1" stop-color="#F0F5FF"/>
</linearGradient>
<linearGradient id="paint13_linear_4_350" x1="30.1104" y1="19.7674" x2="30.1104" y2="8.01116" gradientUnits="userSpaceOnUse">
<stop stop-color="#BCD5FC"/>
<stop offset="1" stop-color="#F0F5FF"/>
</linearGradient>
<linearGradient id="paint14_linear_4_350" x1="33.3594" y1="14.2031" x2="33.3594" y2="7.07812" gradientUnits="userSpaceOnUse">
<stop stop-color="#BCD5FC"/>
<stop offset="1" stop-color="#F0F5FF"/>
</linearGradient>
<linearGradient id="paint15_linear_4_350" x1="13.8887" y1="35.9892" x2="13.8887" y2="24.233" gradientUnits="userSpaceOnUse">
<stop stop-color="#BCD5FC"/>
<stop offset="1" stop-color="#F0F5FF"/>
</linearGradient>
<linearGradient id="paint16_linear_4_350" x1="10.6406" y1="36.9219" x2="10.6406" y2="29.7969" gradientUnits="userSpaceOnUse">
<stop stop-color="#BCD5FC"/>
<stop offset="1" stop-color="#F0F5FF"/>
</linearGradient>
<clipPath id="clip0_4_350">
<rect width="38" height="38" fill="white" transform="translate(3 3)"/>
</clipPath>
</defs>
</svg>
