<svg width="50" height="50" viewBox="0 0 50 50" fill="none" xmlns="http://www.w3.org/2000/svg">
<path d="M25 37.5C31.9036 37.5 37.5 31.9036 37.5 25C37.5 18.0964 31.9036 12.5 25 12.5C18.0964 12.5 12.5 18.0964 12.5 25C12.5 31.9036 18.0964 37.5 25 37.5Z" fill="url(#paint0_linear_4_599)"/>
<path d="M26.1399 0H23.8672V6.53409H26.1399V0Z" fill="#FFB800"/>
<path d="M26.1399 43.4688H23.8672V50.0028H26.1399V43.4688Z" fill="#FFB800"/>
<path d="M6.53409 23.8672H0V26.1399H6.53409V23.8672Z" fill="#FFB800"/>
<path d="M50.0028 23.8672H43.4688V26.1399H50.0028V23.8672Z" fill="#FFB800"/>
<path d="M41.8781 6.52033L37.2578 11.1406L38.8649 12.7477L43.4852 8.12739L41.8781 6.52033Z" fill="#FFB800"/>
<path d="M11.1281 37.2547L6.50781 41.875L8.11487 43.4821L12.7352 38.8618L11.1281 37.2547Z" fill="#FFB800"/>
<path d="M8.1305 6.51794L6.52344 8.125L11.1437 12.7453L12.7508 11.1382L8.1305 6.51794Z" fill="#FFB800"/>
<path d="M38.8649 37.2523L37.2578 38.8594L41.8781 43.4797L43.4852 41.8726L38.8649 37.2523Z" fill="#FFB800"/>
<defs>
<linearGradient id="paint0_linear_4_599" x1="25" y1="37.5" x2="25" y2="12.5" gradientUnits="userSpaceOnUse">
<stop stop-color="#FFB800"/>
<stop offset="1" stop-color="#FFD770"/>
</linearGradient>
</defs>
</svg>
