<svg width="44" height="44" viewBox="0 0 44 44" fill="none" xmlns="http://www.w3.org/2000/svg">
<g clip-path="url(#clip0_4_312)">
<path fill-rule="evenodd" clip-rule="evenodd" d="M6.095 19.025H23.7661C27.6092 19.025 30.7374 15.8818 30.7374 12.0125C30.7374 8.14325 27.6092 5 23.7661 5C23.3192 5 22.9536 5.37125 22.9536 5.825C22.9536 6.27875 23.3192 6.65 23.7661 6.65C26.7155 6.65 29.1124 9.059 29.1124 12.0125C29.1124 14.966 26.7155 17.375 23.7661 17.375H6.095H6.09424M6.095 19.025C4.73 19.025 3.625 20.1388 3.625 21.5C3.625 22.8612 4.73 23.975 6.095 23.975H8.15875C8.60563 23.975 8.97125 24.3463 8.97125 24.8C8.97125 25.2537 8.60563 25.625 8.15875 25.625H6.095C3.83625 25.625 2 23.777 2 21.5C2 19.2235 3.83551 17.3757 6.09364 17.375M31.98 19.025H36.0831C38.7969 19.025 40.9987 16.8057 40.9987 14.075C40.9987 11.3443 38.7969 9.125 36.0831 9.125C35.6362 9.125 35.2706 9.49625 35.2706 9.95C35.2706 10.4037 35.6362 10.775 36.0831 10.775C37.895 10.775 39.3737 12.2517 39.3737 14.075C39.3737 15.8982 37.895 17.375 36.0831 17.375H31.98C31.5331 17.375 31.1675 17.7463 31.1675 18.2C31.1675 18.6537 31.5331 19.025 31.98 19.025ZM20.901 37.175C20.901 37.6287 21.2667 38 21.7135 38C25.5567 38 28.6848 34.8568 28.6848 30.9875C28.6848 27.1182 25.5567 23.975 21.7135 23.975H12.2642C11.8173 23.975 11.4517 24.3463 11.4517 24.8C11.4517 25.2537 11.8173 25.625 12.2642 25.625H21.7135C24.6629 25.625 27.0598 28.034 27.0598 30.9875C27.0598 33.941 24.6629 36.35 21.7135 36.35C21.2667 36.35 20.901 36.7213 20.901 37.175ZM33.0027 33.875C32.5558 33.875 32.1902 33.5037 32.1902 33.05C32.1902 32.5963 32.5558 32.225 33.0027 32.225C34.8146 32.225 36.2933 30.7483 36.2933 28.925C36.2933 27.1017 34.8146 25.625 33.0027 25.625H29.9233C29.4765 25.625 29.1108 25.2537 29.1108 24.8C29.1108 24.3463 29.4765 23.975 29.9233 23.975H33.0027C35.7165 23.975 37.9183 26.1943 37.9183 28.925C37.9183 31.6558 35.7165 33.875 33.0027 33.875ZM10.2139 12.8375H20.4757C20.9226 12.8375 21.2882 12.4662 21.2882 12.0125C21.2882 11.5588 20.9226 11.1875 20.4757 11.1875H10.2139C9.76699 11.1875 9.40137 11.5588 9.40137 12.0125C9.40137 12.4662 9.76699 12.8375 10.2139 12.8375Z" fill="url(#paint0_linear_4_312)"/>
</g>
<defs>
<linearGradient id="paint0_linear_4_312" x1="21.4994" y1="38" x2="21.4994" y2="5" gradientUnits="userSpaceOnUse">
<stop stop-color="#7AAEFF"/>
<stop offset="1" stop-color="#C1D6FF"/>
</linearGradient>
<clipPath id="clip0_4_312">
<rect width="39" height="33" fill="white" transform="translate(2 5)"/>
</clipPath>
</defs>
</svg>
